<?xml version="1.0" encoding="UTF-8" standalone="no"?>
<!-- Created with Inkscape (http://www.inkscape.org/) -->

<svg
   xmlns:dc="http://purl.org/dc/elements/1.1/"
   xmlns:cc="http://creativecommons.org/ns#"
   xmlns:rdf="http://www.w3.org/1999/02/22-rdf-syntax-ns#"
   xmlns:svg="http://www.w3.org/2000/svg"
   xmlns="http://www.w3.org/2000/svg"
   xmlns:sodipodi="http://sodipodi.sourceforge.net/DTD/sodipodi-0.dtd"
   xmlns:inkscape="http://www.inkscape.org/namespaces/inkscape"
   width="1000"
   height="1000"
   id="svg2"
   version="1.1"
   inkscape:version="0.48.0 r9654"
   sodipodi:docname="Avatar.svg">
  <title
     id="title4019">Avatar</title>
  <defs
     id="defs4">
    <clipPath
       clipPathUnits="userSpaceOnUse"
       id="clipPath3990">
      <path
         style="fill:none;stroke:#000000;stroke-width:0.87442285;stroke-opacity:1;display:inline"
         d="m 482.13456,587.91221 c -169.99594,0 -307.80936,159.17076 -305.47432,366.61083 2.33505,106.72336 133.19695,164.78356 303.84501,164.78356 170.64807,0 304.02355,-63.6148 306.71816,-167.56085 C 789.91802,747.08297 652.13052,587.91221 482.13456,587.91221 z"
         id="path3992"
         inkscape:connector-curvature="0"
         sodipodi:nodetypes="scscs" />
    </clipPath>
  </defs>
  <sodipodi:namedview
     id="base"
     pagecolor="#ffffff"
     bordercolor="#666666"
     borderopacity="1.0"
     inkscape:pageopacity="0.0"
     inkscape:pageshadow="2"
     inkscape:zoom="0.33266667"
     inkscape:cx="428.18298"
     inkscape:cy="500"
     inkscape:document-units="px"
     inkscape:current-layer="layer1"
     showgrid="false"
     inkscape:window-width="1243"
     inkscape:window-height="690"
     inkscape:window-x="8"
     inkscape:window-y="24"
     inkscape:window-maximized="0" />
  <metadata
     id="metadata7">
    <rdf:RDF>
      <cc:Work
         rdf:about="">
        <dc:format>image/svg+xml</dc:format>
        <dc:type
           rdf:resource="http://purl.org/dc/dcmitype/StillImage" />
        <dc:title>Avatar</dc:title>
        <dc:date>2011-03-01</dc:date>
        <dc:creator>
          <cc:Agent>
            <dc:title>Cumin the Barbarian</dc:title>
          </cc:Agent>
        </dc:creator>
        <cc:license
           rdf:resource="http://creativecommons.org/licenses/publicdomain/" />
        <dc:description>An SVG version of the default Wikia Avatar.jpg image.</dc:description>
        <dc:identifier>http://recipes.wikia.com/wiki/File:Avatar.svg</dc:identifier>
        <dc:source>http://recipes.wikia.com/wiki/File:Avatar.svg</dc:source>
        <dc:rights>
          <cc:Agent>
            <dc:title>Public Domain</dc:title>
          </cc:Agent>
        </dc:rights>
      </cc:Work>
      <cc:License
         rdf:about="http://creativecommons.org/licenses/publicdomain/">
        <cc:permits
           rdf:resource="http://creativecommons.org/ns#Reproduction" />
        <cc:permits
           rdf:resource="http://creativecommons.org/ns#Distribution" />
        <cc:permits
           rdf:resource="http://creativecommons.org/ns#DerivativeWorks" />
      </cc:License>
    </rdf:RDF>
  </metadata>
  <g
     inkscape:label="Layer 1"
     inkscape:groupmode="layer"
     id="layer1"
     transform="translate(0,-52.36218)"
     style="display:inline">
    <g
       id="g3994"
       transform="matrix(0.81107703,0,0,0.81107703,95.361272,348.97614)">
      <path
         sodipodi:nodetypes="scscs"
         inkscape:connector-curvature="0"
         id="path3050-4-7"
         d="m 499.22504,190.63576 c -205.41242,0 -371.93749,172.27893 -369.11597,396.80229 2.82152,115.51233 160.94681,178.35396 367.14722,178.35396 206.20041,0 367.36299,-68.85365 370.619,-181.35997 C 871.1313,362.91469 704.63748,190.63576 499.22504,190.63576 z"
         style="fill:#a5a5a5;fill-opacity:1;stroke:none" />
      <path
         sodipodi:nodetypes="scscs"
         inkscape:connector-curvature="0"
         id="path3050-4"
         d="m 499.01032,171.59803 c -205.41242,0 -371.9375,172.27893 -369.11598,396.80229 2.82152,115.51233 160.94682,178.35396 367.14723,178.35396 206.20041,0 367.36299,-68.85365 370.619,-181.35997 3.256,-221.51735 -163.23781,-393.79628 -368.65025,-393.79628 z"
         style="fill:#cccccc;fill-opacity:1;stroke:none" />
      <path
         clip-path="url(#clipPath3990)"
         transform="matrix(1.2083372,0,0,1.0823529,-86.362084,-460.72279)"
         d="m 670.34068,450.90179 c 0,141.11484 -85.46067,255.51102 -190.88176,255.51102 -105.42108,0 -190.88176,-114.39618 -190.88176,-255.51102 0,-141.11483 85.46068,-255.51101 190.88176,-255.51101 105.42109,0 190.88176,114.39618 190.88176,255.51101 z"
         sodipodi:ry="255.51102"
         sodipodi:rx="190.88176"
         sodipodi:cy="450.90179"
         sodipodi:cx="479.45892"
         id="path3050-7"
         style="fill:#7d7d7d;fill-opacity:1;stroke:none"
         sodipodi:type="arc" />
      <path
         transform="matrix(1.2083372,0,0,1.0823529,-87.175466,-475.75288)"
         d="m 670.34068,450.90179 c 0,141.11484 -85.46067,255.51102 -190.88176,255.51102 -105.42108,0 -190.88176,-114.39618 -190.88176,-255.51102 0,-141.11483 85.46068,-255.51101 190.88176,-255.51101 105.42109,0 190.88176,114.39618 190.88176,255.51101 z"
         sodipodi:ry="255.51102"
         sodipodi:rx="190.88176"
         sodipodi:cy="450.90179"
         sodipodi:cx="479.45892"
         id="path3050"
         style="fill:#cccccc;fill-opacity:1;stroke:none"
         sodipodi:type="arc" />
    </g>
  </g>
</svg>
